<svg xmlns="http://www.w3.org/2000/svg" viewBox="0 0 164 164" width="164" height="164" shape-rendering="crispEdges"><rect width="164" height="164" fill="#fff"/><path d="M8 8h28v4h-28zM40 8h16v4h-16zM76 8h12v4h-12zM96 8h24v4h-24zM128 8h28v4h-28zM8 12h4v4h-4zM32 12h4v4h-4zM48 12h8v4h-8zM60 12h4v4h-4zM72 12h8v4h-8zM88 12h4v4h-4zM108 12h8v4h-8zM120 12h4v4h-4zM128 12h4v4h-4zM152 12h4v4h-4zM8 16h4v4h-4zM16 16h12v4h-12zM32 16h4v4h-4zM44 16h4v4h-4zM60 16h8v4h-8zM72 16h8v4h-8zM84 16h12v4h-12zM100 16h8v4h-8zM112 16h4v4h-4zM128 16h4v4h-4zM136 16h12v4h-12zM152 16h4v4h-4zM8 20h4v4h-4zM16 20h12v4h-12zM32 20h4v4h-4zM40 20h4v4h-4zM48 20h4v4h-4zM60 20h12v4h-12zM80 20h8v4h-8zM100 20h4v4h-4zM108 20h8v4h-8zM120 20h4v4h-4zM128 20h4v4h-4zM136 20h12v4h-12zM152 20h4v4h-4zM8 24h4v4h-4zM16 24h12v4h-12zM32 24h4v4h-4zM40 24h4v4h-4zM48 24h4v4h-4zM60 24h8v4h-8zM80 24h4v4h-4zM88 24h8v4h-8zM100 24h4v4h-4zM112 24h12v4h-12zM128 24h4v4h-4zM136 24h12v4h-12zM152 24h4v4h-4zM8 28h4v4h-4zM32 28h4v4h-4zM40 28h4v4h-4zM52 28h8v4h-8zM64 28h4v4h-4zM72 28h4v4h-4zM80 28h8v4h-8zM104 28h4v4h-4zM128 28h4v4h-4zM152 28h4v4h-4zM8 32h28v4h-28zM40 32h4v4h-4zM48 32h4v4h-4zM56 32h4v4h-4zM64 32h4v4h-4zM72 32h4v4h-4zM80 32h4v4h-4zM88 32h4v4h-4zM96 32h4v4h-4zM104 32h4v4h-4zM112 32h4v4h-4zM120 32h4v4h-4zM128 32h28v4h-28zM40 36h4v4h-4zM48 36h8v4h-8zM60 36h24v4h-24zM88 36h8v4h-8zM100 36h8v4h-8zM120 36h4v4h-4zM8 40h4v4h-4zM24 40h4v4h-4zM32 40h16v4h-16zM52 40h12v4h-12zM68 40h4v4h-4zM80 40h8v4h-8zM96 40h4v4h-4zM124 40h20v4h-20zM152 40h4v4h-4zM8 44h24v4h-24zM40 44h20v4h-20zM64 44h4v4h-4zM72 44h4v4h-4zM84 44h12v4h-12zM100 44h8v4h-8zM112 44h12v4h-12zM136 44h8v4h-8zM148 44h4v4h-4zM12 48h8v4h-8zM24 48h4v4h-4zM32 48h20v4h-20zM56 48h12v4h-12zM72 48h4v4h-4zM80 48h4v4h-4zM88 48h4v4h-4zM100 48h20v4h-20zM128 48h4v4h-4zM140 48h8v4h-8zM24 52h8v4h-8zM36 52h8v4h-8zM48 52h4v4h-4zM56 52h4v4h-4zM64 52h4v4h-4zM76 52h8v4h-8zM92 52h16v4h-16zM124 52h4v4h-4zM132 52h8v4h-8zM144 52h8v4h-8zM8 56h16v4h-16zM32 56h8v4h-8zM60 56h4v4h-4zM68 56h4v4h-4zM76 56h4v4h-4zM84 56h20v4h-20zM120 56h16v4h-16zM144 56h12v4h-12zM8 60h4v4h-4zM16 60h4v4h-4zM24 60h4v4h-4zM36 60h12v4h-12zM52 60h8v4h-8zM68 60h16v4h-16zM100 60h4v4h-4zM112 60h16v4h-16zM136 60h8v4h-8zM148 60h4v4h-4zM8 64h8v4h-8zM32 64h8v4h-8zM48 64h8v4h-8zM68 64h8v4h-8zM80 64h4v4h-4zM96 64h12v4h-12zM116 64h8v4h-8zM128 64h20v4h-20zM8 68h4v4h-4zM20 68h8v4h-8zM48 68h4v4h-4zM56 68h4v4h-4zM84 68h24v4h-24zM128 68h12v4h-12zM144 68h4v4h-4zM152 68h4v4h-4zM8 72h4v4h-4zM28 72h12v4h-12zM52 72h12v4h-12zM68 72h8v4h-8zM84 72h8v4h-8zM124 72h12v4h-12zM140 72h12v4h-12zM8 76h4v4h-4zM16 76h4v4h-4zM36 76h4v4h-4zM44 76h4v4h-4zM64 76h4v4h-4zM76 76h12v4h-12zM100 76h12v4h-12zM116 76h8v4h-8zM136 76h8v4h-8zM148 76h4v4h-4zM8 80h4v4h-4zM16 80h4v4h-4zM28 80h16v4h-16zM52 80h4v4h-4zM60 80h12v4h-12zM76 80h4v4h-4zM84 80h4v4h-4zM92 80h20v4h-20zM116 80h4v4h-4zM124 80h16v4h-16zM144 80h4v4h-4zM8 84h4v4h-4zM20 84h8v4h-8zM36 84h8v4h-8zM60 84h36v4h-36zM112 84h4v4h-4zM132 84h8v4h-8zM144 84h8v4h-8zM8 88h4v4h-4zM16 88h8v4h-8zM28 88h16v4h-16zM52 88h8v4h-8zM64 88h4v4h-4zM76 88h4v4h-4zM92 88h8v4h-8zM104 88h4v4h-4zM116 88h4v4h-4zM124 88h12v4h-12zM144 88h4v4h-4zM8 92h4v4h-4zM16 92h8v4h-8zM28 92h4v4h-4zM44 92h28v4h-28zM92 92h4v4h-4zM100 92h4v4h-4zM108 92h16v4h-16zM132 92h8v4h-8zM8 96h8v4h-8zM24 96h12v4h-12zM44 96h8v4h-8zM56 96h24v4h-24zM88 96h4v4h-4zM100 96h4v4h-4zM112 96h8v4h-8zM132 96h20v4h-20zM12 100h8v4h-8zM28 100h4v4h-4zM36 100h4v4h-4zM56 100h4v4h-4zM64 100h4v4h-4zM72 100h12v4h-12zM96 100h12v4h-12zM116 100h4v4h-4zM128 100h12v4h-12zM144 100h4v4h-4zM152 100h4v4h-4zM12 104h12v4h-12zM32 104h8v4h-8zM48 104h4v4h-4zM80 104h4v4h-4zM96 104h4v4h-4zM104 104h4v4h-4zM124 104h12v4h-12zM140 104h12v4h-12zM8 108h4v4h-4zM24 108h8v4h-8zM36 108h8v4h-8zM48 108h12v4h-12zM64 108h4v4h-4zM72 108h4v4h-4zM84 108h12v4h-12zM100 108h4v4h-4zM108 108h12v4h-12zM136 108h4v4h-4zM16 112h8v4h-8zM32 112h4v4h-4zM44 112h4v4h-4zM60 112h8v4h-8zM72 112h12v4h-12zM88 112h4v4h-4zM100 112h8v4h-8zM116 112h4v4h-4zM124 112h4v4h-4zM136 112h4v4h-4zM20 116h12v4h-12zM44 116h8v4h-8zM64 116h4v4h-4zM76 116h4v4h-4zM92 116h8v4h-8zM104 116h4v4h-4zM112 116h8v4h-8zM128 116h12v4h-12zM144 116h4v4h-4zM8 120h20v4h-20zM32 120h8v4h-8zM48 120h4v4h-4zM60 120h4v4h-4zM68 120h4v4h-4zM76 120h4v4h-4zM84 120h24v4h-24zM120 120h20v4h-20zM144 120h12v4h-12zM40 124h4v4h-4zM48 124h36v4h-36zM100 124h4v4h-4zM112 124h4v4h-4zM120 124h4v4h-4zM136 124h4v4h-4zM8 128h28v4h-28zM40 128h8v4h-8zM60 128h4v4h-4zM68 128h4v4h-4zM80 128h4v4h-4zM92 128h16v4h-16zM112 128h4v4h-4zM120 128h4v4h-4zM128 128h4v4h-4zM136 128h4v4h-4zM8 132h4v4h-4zM32 132h4v4h-4zM44 132h4v4h-4zM52 132h4v4h-4zM60 132h12v4h-12zM84 132h4v4h-4zM92 132h4v4h-4zM112 132h4v4h-4zM120 132h4v4h-4zM136 132h12v4h-12zM8 136h4v4h-4zM16 136h12v4h-12zM32 136h4v4h-4zM40 136h4v4h-4zM52 136h4v4h-4zM72 136h4v4h-4zM84 136h8v4h-8zM120 136h28v4h-28zM8 140h4v4h-4zM16 140h12v4h-12zM32 140h4v4h-4zM44 140h4v4h-4zM52 140h4v4h-4zM60 140h8v4h-8zM76 140h12v4h-12zM96 140h12v4h-12zM112 140h8v4h-8zM124 140h12v4h-12zM144 140h4v4h-4zM152 140h4v4h-4zM8 144h4v4h-4zM16 144h12v4h-12zM32 144h4v4h-4zM64 144h8v4h-8zM76 144h4v4h-4zM84 144h4v4h-4zM92 144h12v4h-12zM120 144h12v4h-12zM140 144h8v4h-8zM8 148h4v4h-4zM32 148h4v4h-4zM52 148h8v4h-8zM68 148h12v4h-12zM84 148h12v4h-12zM100 148h8v4h-8zM112 148h8v4h-8zM124 148h8v4h-8zM136 148h4v4h-4zM144 148h8v4h-8zM8 152h28v4h-28zM40 152h8v4h-8zM56 152h4v4h-4zM72 152h8v4h-8zM92 152h12v4h-12zM116 152h4v4h-4zM124 152h12v4h-12zM144 152h12v4h-12z" fill="#000"/></svg>