<svg xmlns="http://www.w3.org/2000/svg" viewBox="0 0 164 164" width="164" height="164" shape-rendering="crispEdges"><rect width="164" height="164" fill="#fff"/><path d="M8 8h28v4h-28zM48 8h4v4h-4zM60 8h12v4h-12zM76 8h8v4h-8zM88 8h20v4h-20zM128 8h28v4h-28zM8 12h4v4h-4zM32 12h4v4h-4zM44 12h16v4h-16zM64 12h4v4h-4zM72 12h8v4h-8zM84 12h4v4h-4zM92 12h4v4h-4zM116 12h8v4h-8zM128 12h4v4h-4zM152 12h4v4h-4zM8 16h4v4h-4zM16 16h12v4h-12zM32 16h4v4h-4zM40 16h12v4h-12zM56 16h12v4h-12zM80 16h20v4h-20zM112 16h4v4h-4zM120 16h4v4h-4zM128 16h4v4h-4zM136 16h12v4h-12zM152 16h4v4h-4zM8 20h4v4h-4zM16 20h12v4h-12zM32 20h4v4h-4zM40 20h4v4h-4zM52 20h16v4h-16zM72 20h8v4h-8zM84 20h4v4h-4zM96 20h4v4h-4zM104 20h12v4h-12zM128 20h4v4h-4zM136 20h12v4h-12zM152 20h4v4h-4zM8 24h4v4h-4zM16 24h12v4h-12zM32 24h4v4h-4zM40 24h12v4h-12zM60 24h4v4h-4zM68 24h4v4h-4zM80 24h8v4h-8zM100 24h4v4h-4zM108 24h4v4h-4zM120 24h4v4h-4zM128 24h4v4h-4zM136 24h12v4h-12zM152 24h4v4h-4zM8 28h4v4h-4zM32 28h4v4h-4zM40 28h20v4h-20zM68 28h8v4h-8zM80 28h4v4h-4zM88 28h8v4h-8zM104 28h16v4h-16zM128 28h4v4h-4zM152 28h4v4h-4zM8 32h28v4h-28zM40 32h4v4h-4zM48 32h4v4h-4zM56 32h4v4h-4zM64 32h4v4h-4zM72 32h4v4h-4zM80 32h4v4h-4zM88 32h4v4h-4zM96 32h4v4h-4zM104 32h4v4h-4zM112 32h4v4h-4zM120 32h4v4h-4zM128 32h28v4h-28zM40 36h12v4h-12zM56 36h4v4h-4zM64 36h8v4h-8zM88 36h12v4h-12zM8 40h4v4h-4zM16 40h20v4h-20zM52 40h12v4h-12zM80 40h4v4h-4zM88 40h12v4h-12zM108 40h12v4h-12zM128 40h20v4h-20zM8 44h4v4h-4zM16 44h4v4h-4zM24 44h4v4h-4zM36 44h4v4h-4zM56 44h20v4h-20zM100 44h12v4h-12zM120 44h4v4h-4zM132 44h4v4h-4zM148 44h4v4h-4zM8 48h8v4h-8zM20 48h4v4h-4zM28 48h20v4h-20zM56 48h12v4h-12zM76 48h4v4h-4zM88 48h4v4h-4zM96 48h4v4h-4zM108 48h20v4h-20zM140 48h4v4h-4zM148 48h8v4h-8zM8 52h4v4h-4zM40 52h4v4h-4zM52 52h8v4h-8zM64 52h4v4h-4zM72 52h4v4h-4zM92 52h4v4h-4zM120 52h4v4h-4zM128 52h12v4h-12zM152 52h4v4h-4zM8 56h4v4h-4zM16 56h4v4h-4zM32 56h4v4h-4zM40 56h8v4h-8zM64 56h4v4h-4zM76 56h4v4h-4zM96 56h8v4h-8zM108 56h24v4h-24zM136 56h20v4h-20zM12 60h4v4h-4zM20 60h8v4h-8zM44 60h4v4h-4zM52 60h8v4h-8zM64 60h4v4h-4zM72 60h24v4h-24zM100 60h4v4h-4zM108 60h4v4h-4zM120 60h8v4h-8zM132 60h4v4h-4zM148 60h4v4h-4zM8 64h4v4h-4zM24 64h4v4h-4zM32 64h8v4h-8zM44 64h8v4h-8zM56 64h4v4h-4zM68 64h4v4h-4zM76 64h4v4h-4zM92 64h8v4h-8zM116 64h4v4h-4zM124 64h4v4h-4zM132 64h12v4h-12zM148 64h8v4h-8zM12 68h4v4h-4zM20 68h4v4h-4zM52 68h4v4h-4zM72 68h28v4h-28zM120 68h8v4h-8zM132 68h8v4h-8zM148 68h4v4h-4zM12 72h16v4h-16zM32 72h4v4h-4zM40 72h16v4h-16zM64 72h4v4h-4zM72 72h4v4h-4zM92 72h4v4h-4zM108 72h12v4h-12zM124 72h8v4h-8zM136 72h4v4h-4zM144 72h8v4h-8zM8 76h4v4h-4zM16 76h4v4h-4zM36 76h8v4h-8zM48 76h24v4h-24zM76 76h8v4h-8zM88 76h8v4h-8zM100 76h8v4h-8zM112 76h4v4h-4zM120 76h4v4h-4zM132 76h4v4h-4zM148 76h4v4h-4zM16 80h12v4h-12zM32 80h4v4h-4zM48 80h4v4h-4zM60 80h16v4h-16zM80 80h8v4h-8zM92 80h4v4h-4zM108 80h4v4h-4zM116 80h8v4h-8zM132 80h8v4h-8zM148 80h8v4h-8zM16 84h4v4h-4zM28 84h4v4h-4zM40 84h4v4h-4zM48 84h24v4h-24zM84 84h24v4h-24zM112 84h4v4h-4zM120 84h20v4h-20zM152 84h4v4h-4zM8 88h8v4h-8zM28 88h12v4h-12zM44 88h4v4h-4zM56 88h8v4h-8zM68 88h4v4h-4zM76 88h4v4h-4zM84 88h8v4h-8zM96 88h4v4h-4zM104 88h12v4h-12zM124 88h8v4h-8zM136 88h12v4h-12zM8 92h8v4h-8zM24 92h8v4h-8zM36 92h8v4h-8zM48 92h12v4h-12zM84 92h8v4h-8zM100 92h4v4h-4zM120 92h4v4h-4zM140 92h4v4h-4zM8 96h4v4h-4zM28 96h8v4h-8zM44 96h12v4h-12zM60 96h12v4h-12zM80 96h4v4h-4zM88 96h4v4h-4zM96 96h4v4h-4zM104 96h4v4h-4zM112 96h32v4h-32zM152 96h4v4h-4zM8 100h12v4h-12zM24 100h4v4h-4zM36 100h4v4h-4zM44 100h4v4h-4zM52 100h4v4h-4zM64 100h4v4h-4zM116 100h12v4h-12zM132 100h8v4h-8zM148 100h4v4h-4zM8 104h4v4h-4zM20 104h8v4h-8zM32 104h4v4h-4zM48 104h4v4h-4zM60 104h4v4h-4zM68 104h4v4h-4zM80 104h20v4h-20zM104 104h16v4h-16zM124 104h8v4h-8zM136 104h4v4h-4zM144 104h8v4h-8zM8 108h4v4h-4zM20 108h12v4h-12zM36 108h12v4h-12zM52 108h4v4h-4zM60 108h16v4h-16zM100 108h4v4h-4zM132 108h4v4h-4zM140 108h4v4h-4zM8 112h4v4h-4zM20 112h16v4h-16zM40 112h12v4h-12zM56 112h12v4h-12zM88 112h4v4h-4zM96 112h4v4h-4zM116 112h8v4h-8zM128 112h4v4h-4zM136 112h4v4h-4zM144 112h12v4h-12zM8 116h4v4h-4zM40 116h8v4h-8zM64 116h4v4h-4zM72 116h4v4h-4zM80 116h4v4h-4zM92 116h4v4h-4zM100 116h4v4h-4zM112 116h16v4h-16zM132 116h8v4h-8zM148 116h8v4h-8zM8 120h4v4h-4zM16 120h4v4h-4zM24 120h4v4h-4zM32 120h4v4h-4zM40 120h16v4h-16zM64 120h4v4h-4zM76 120h4v4h-4zM96 120h60v4h-60zM40 124h24v4h-24zM72 124h24v4h-24zM100 124h4v4h-4zM108 124h4v4h-4zM116 124h8v4h-8zM136 124h8v4h-8zM8 128h28v4h-28zM44 128h20v4h-20zM68 128h12v4h-12zM92 128h4v4h-4zM112 128h4v4h-4zM120 128h4v4h-4zM128 128h4v4h-4zM136 128h4v4h-4zM144 128h12v4h-12zM8 132h4v4h-4zM32 132h4v4h-4zM40 132h4v4h-4zM56 132h4v4h-4zM68 132h20v4h-20zM92 132h16v4h-16zM112 132h4v4h-4zM120 132h4v4h-4zM136 132h8v4h-8zM148 132h8v4h-8zM8 136h4v4h-4zM16 136h12v4h-12zM32 136h4v4h-4zM40 136h16v4h-16zM68 136h8v4h-8zM92 136h4v4h-4zM108 136h32v4h-32zM144 136h4v4h-4zM8 140h4v4h-4zM16 140h12v4h-12zM32 140h4v4h-4zM40 140h4v4h-4zM48 140h4v4h-4zM64 140h8v4h-8zM76 140h8v4h-8zM88 140h24v4h-24zM124 140h8v4h-8zM136 140h12v4h-12zM152 140h4v4h-4zM8 144h4v4h-4zM16 144h12v4h-12zM32 144h4v4h-4zM40 144h4v4h-4zM48 144h4v4h-4zM56 144h4v4h-4zM64 144h12v4h-12zM80 144h8v4h-8zM92 144h4v4h-4zM104 144h4v4h-4zM140 144h4v4h-4zM148 144h8v4h-8zM8 148h4v4h-4zM32 148h4v4h-4zM48 148h4v4h-4zM56 148h4v4h-4zM68 148h4v4h-4zM80 148h20v4h-20zM112 148h12v4h-12zM136 148h4v4h-4zM152 148h4v4h-4zM8 152h28v4h-28zM40 152h4v4h-4zM56 152h24v4h-24zM84 152h8v4h-8zM96 152h8v4h-8zM108 152h8v4h-8zM124 152h8v4h-8zM136 152h20v4h-20z" fill="#000"/></svg>